<?xml version="1.0" standalone="no"?><!DOCTYPE svg PUBLIC "-//W3C//DTD SVG 1.1//EN" "http://www.w3.org/Graphics/SVG/1.1/DTD/svg11.dtd"><svg t="1662090656116" class="icon" viewBox="0 0 1024 1024" version="1.1" xmlns="http://www.w3.org/2000/svg" p-id="1217" xmlns:xlink="http://www.w3.org/1999/xlink" width="200" height="200"><path d="M509.9008 519.8336m-450.816 0a450.816 450.816 0 1 0 901.632 0 450.816 450.816 0 1 0-901.632 0Z" fill="#FF4D7C" p-id="1218"></path><path d="M508.1088 727.6544m-124.0064 0a124.0064 124.0064 0 1 0 248.0128 0 124.0064 124.0064 0 1 0-248.0128 0Z" fill="#FFFFFF" p-id="1219"></path><path d="M832.0512 408.1664c-39.9872-93.0304-144.1792-218.2656-321.2288-218.2656-99.84 0-230.7072 44.032-305.1008 175.5136-74.3936 131.4816-33.4848 244.3264 42.1888 274.0736 75.6736 29.7472 138.2912-18.5856 164.9664-40.9088 26.6752-22.3232 53.3504-32.256 97.9968-32.256s69.632 13.4656 94.2592 30.72c24.6272 17.2032 46.4896 54.4256 136.7552 44.6464 92.8256-10.0864 130.1504-140.4928 90.1632-233.5232z m-463.872-46.8992c-0.9216 0.6656-52.1216 38.4-67.6864 105.1648a30.07488 30.07488 0 0 1-36.1472 22.4768c-16.1792-3.7888-26.2656-19.968-22.4768-36.1472 20.9408-89.9584 88.6272-138.5984 91.4944-140.5952a30.1056 30.1056 0 0 1 34.816 49.1008z" fill="#FFFFFF" p-id="1220"></path></svg>